/* XPM */
static char *e71b1a3cc7294bece0ad06452f38043a287tc8JYucLuXaaQ[] = {
/* columns rows colors chars-per-pixel */
"20 20 2 1 ",
"  c None",
". c white",
/* pixels */
"                    ",
"        ....        ",
"      ........      ",
"      .      .      ",
"     .        .     ",
"     .        .     ",
"     .        .     ",
"     .        .     ",
"     .        .     ",
"     .        .     ",
"     . ...... .     ",
"     . ...... .     ",
"     .        .     ",
"     . ...... .     ",
"     . ...... .     ",
"     .        .     ",
"     . ...... .     ",
"     .  ..... .     ",
"      ........      ",
"                    "
};
